<?xml version="1.0" encoding="UTF-8" standalone="no"?>
<!-- Created with Inkscape (http://www.inkscape.org/) -->

<svg
   width="512"
   height="128"
   viewBox="0 0 135.46666 33.866666"
   version="1.1"
   id="svg1"
   sodipodi:docname="swayrider-banner-dark.svg"
   inkscape:version="1.4.3 (0d15f75042, 2025-12-25)"
   xmlns:inkscape="http://www.inkscape.org/namespaces/inkscape"
   xmlns:sodipodi="http://sodipodi.sourceforge.net/DTD/sodipodi-0.dtd"
   xmlns="http://www.w3.org/2000/svg"
   xmlns:svg="http://www.w3.org/2000/svg"
   xmlns:rdf="http://www.w3.org/1999/02/22-rdf-syntax-ns#"
   xmlns:cc="http://creativecommons.org/ns#"
   xmlns:dc="http://purl.org/dc/elements/1.1/">
  <defs
     id="defs1" />
  <sodipodi:namedview
     id="base"
     pagecolor="#ffffff"
     bordercolor="#000000"
     borderopacity="0.3"
     inkscape:pageopacity="0.0"
     inkscape:pageshadow="2"
     inkscape:zoom="3.0287031"
     inkscape:cx="254.89458"
     inkscape:cy="40.281268"
     inkscape:document-units="mm"
     inkscape:showpageshadow="2"
     inkscape:pagecheckerboard="0"
     inkscape:deskcolor="#d1d1d1"
     inkscape:window-width="2400"
     inkscape:window-height="1444"
     inkscape:window-x="0"
     inkscape:window-y="0"
     inkscape:window-maximized="0"
     inkscape:current-layer="svg1" />
  <metadata
     id="metadata1">
    <rdf:RDF>
      <cc:Work
         rdf:about="">
        <dc:format>image/svg+xml</dc:format>
        <dc:type
           rdf:resource="http://purl.org/dc/dcmitype/StillImage" />
      </cc:Work>
    </rdf:RDF>
  </metadata>
  <rect
     style="fill:#121417;fill-opacity:1;stroke-width:2.44496"
     id="rect40"
     width="135.46666"
     height="33.866665"
     x="0"
     y="0" />
  <path
     id="path39"
     style="font-style:italic;font-weight:600;font-size:19.7556px;font-family:'Exo 2';-inkscape-font-specification:'Exo 2 Semi-Bold Italic';stroke-width:0.337984;fill:#e6e8ea;fill-opacity:1"
     d="m 125.12616,10.831402 -0.0758,3.154531 0.25236,0.353307 -1.23657,8.883158 h -3.05359 l 1.74131,-12.390996 z m 6.10717,-0.302834 -0.70662,2.826459 h -0.78231 c -0.65615,0 -1.35435,0.176653 -2.09462,0.52996 -0.72344,0.353308 -1.62353,0.866445 -2.70028,1.539412 l -0.15141,-1.842246 c 1.02627,-0.992625 2.0189,-1.749713 2.97787,-2.271263 0.97581,-0.521548 1.88432,-0.782322 2.72552,-0.782322 z"
     inkscape:label="r" />
  <path
     style="font-style:italic;font-weight:600;font-size:19.7556px;font-family:'Exo 2';-inkscape-font-specification:'Exo 2 Semi-Bold Italic';stroke-width:0.337984;fill:#e6e8ea;fill-opacity:1"
     d="m 114.42598,10.528568 c 1.43006,0 2.53204,0.159829 3.30596,0.479488 0.79073,0.302834 1.32069,0.765499 1.58988,1.387993 0.26919,0.605671 0.32806,1.362758 0.17665,2.271262 -0.1346,0.790736 -0.39537,1.413229 -0.78233,1.867482 -0.37013,0.454253 -0.89168,0.799149 -1.56464,1.034687 -0.65615,0.218713 -1.49735,0.370131 -2.52362,0.454252 l -6.20812,0.529961 0.2776,-1.867482 5.50149,-0.529962 c 0.50473,-0.05047 0.90851,-0.126183 1.21135,-0.227125 0.31966,-0.117766 0.56361,-0.294423 0.73184,-0.529962 0.18508,-0.235538 0.31126,-0.572021 0.37856,-1.00945 0.0842,-0.4879 0.0505,-0.84962 -0.10092,-1.085157 -0.15143,-0.235539 -0.40379,-0.378545 -0.75709,-0.429018 -0.35331,-0.06729 -0.82439,-0.100942 -1.41324,-0.100942 -0.57202,0 -1.05991,0.05889 -1.4637,0.176654 -0.40378,0.100942 -0.74026,0.294423 -1.00944,0.580434 -0.26919,0.286011 -0.49632,0.68979 -0.68139,1.21134 -0.16824,0.504725 -0.31965,1.177691 -0.45425,2.0189 -0.18506,1.21134 -0.21032,2.128255 -0.0757,2.75075 0.15141,0.60567 0.45425,1.017863 0.9085,1.236577 0.45425,0.20189 1.07674,0.302834 1.86748,0.302834 0.4206,0 0.9085,-0.0084 1.46371,-0.02524 l 1.66559,-0.100942 c 0.57202,-0.05047 1.09356,-0.100941 1.56464,-0.151418 l 0.20189,1.943191 c -0.45425,0.20189 -1.00104,0.36172 -1.64036,0.47949 -0.62249,0.117765 -1.25339,0.20189 -1.89272,0.252362 -0.62249,0.05047 -1.21133,0.07571 -1.76653,0.07571 -1.54782,0 -2.75916,-0.243951 -3.63401,-0.731852 -0.85803,-0.4879 -1.43006,-1.228164 -1.71606,-2.22079 -0.28602,-1.00945 -0.33649,-2.271262 -0.15143,-3.785437 0.16825,-1.244987 0.42061,-2.271262 0.75709,-3.078821 0.35331,-0.824384 0.80756,-1.463702 1.36275,-1.917954 0.55521,-0.471077 1.23658,-0.799148 2.04414,-0.984215 0.80755,-0.185065 1.7497,-0.277598 2.82645,-0.277598 z"
     id="path38"
     inkscape:label="e" />
  <path
     id="path36"
     style="font-style:italic;font-weight:600;font-size:19.7556px;font-family:'Exo 2';-inkscape-font-specification:'Exo 2 Semi-Bold Italic';stroke-width:0.337984;fill:#e6e8ea;fill-opacity:1"
     d="m 98.501953,10.528568 c 1.02627,0 2.069367,0.06729 3.129287,0.201889 1.07675,0.134593 1.98525,0.319659 2.72552,0.555198 l -0.52997,1.488938 c -0.8412,-0.01682 -1.59829,-0.03365 -2.27125,-0.05047 -0.65615,-0.01682 -1.26182,-0.02524 -1.817017,-0.02524 -0.6898,0 -1.26181,0.05047 -1.71606,0.151418 -0.45426,0.100942 -0.81597,0.294423 -1.08516,0.580434 -0.26919,0.286011 -0.4879,0.706615 -0.65614,1.261812 -0.16825,0.555197 -0.31966,1.29546 -0.45426,2.220789 -0.13459,1.00945 -0.20189,1.808597 -0.20189,2.397443 0.0169,0.588846 0.13463,1.00945 0.35331,1.261812 0.21871,0.235539 0.57202,0.353309 1.05992,0.353309 0.79074,0 1.55624,-0.235539 2.2965,-0.706616 0.740257,-0.487899 1.581467,-1.177691 2.523617,-2.069371 l 0.58044,1.362756 c -0.286,0.370132 -0.64773,0.790736 -1.08516,1.261813 -0.4206,0.454252 -0.91692,0.89168 -1.488937,1.312284 -0.55519,0.420604 -1.16085,0.765499 -1.817,1.034687 -0.65615,0.269187 -1.35435,0.40378 -2.09462,0.40378 -0.89168,0 -1.61511,-0.218714 -2.17031,-0.656143 -0.53838,-0.437429 -0.90009,-1.152456 -1.08516,-2.145081 -0.18507,-0.992624 -0.17665,-2.288085 0.0252,-3.886381 0.20189,-1.345933 0.47108,-2.431092 0.80756,-3.255476 0.33649,-0.841209 0.74026,-1.480526 1.21134,-1.917954 0.4879,-0.437429 1.04311,-0.731852 1.6656,-0.883269 0.62248,-0.168241 1.3207,-0.252362 2.09461,-0.252362 z M 106.199,5.5570255 103.70061,23.222398 h -2.39744 l 0.0757,-2.95264 -0.2776,-0.201891 1.16086,-8.656031 0.22713,-0.40378 c 0,-0.437429 0.0169,-0.858033 0.0505,-1.2618134 0.0336,-0.420604 0.084,-0.866444 0.15142,-1.337521 l 0.42901,-2.8516961 z"
     inkscape:label="d" />
  <path
     id="path34"
     style="font-style:italic;font-weight:600;font-size:19.7556px;font-family:'Exo 2';-inkscape-font-specification:'Exo 2 Semi-Bold Italic';stroke-width:0.337984;fill:#e6e8ea;fill-opacity:1"
     d="m 90.552523,10.831402 -1.71607,12.390996 H 85.78287 l 1.741303,-12.390996 z m -0.17666,-5.3753209 c 0.33649,0 0.57203,0.092537 0.70662,0.2775992 0.15142,0.1682416 0.2103,0.4037792 0.17665,0.7066138 l -0.17665,1.3879935 c -0.0841,0.572022 -0.42061,0.858033 -1.00945,0.858033 h -1.31229 c -0.65614,0 -0.94215,-0.328071 -0.85803,-0.984214 l 0.17665,-1.3879937 c 0.0673,-0.5720208 0.39537,-0.8580318 0.98422,-0.8580318 z"
     inkscape:label="i" />
  <path
     id="path32"
     style="font-style:italic;font-weight:600;font-size:19.7556px;font-family:'Exo 2';-inkscape-font-specification:'Exo 2 Semi-Bold Italic';stroke-width:0.337984;fill:#e6e8ea;fill-opacity:1"
     d="m 78.615791,5.5822623 c 1.329108,0 2.431091,0.1598298 3.305947,0.4794882 0.891681,0.3028346 1.531,0.8327963 1.917956,1.5898841 0.403779,0.757087 0.513136,1.808597 0.328071,3.1545314 -0.100942,0.807559 -0.302836,1.514174 -0.605671,2.119845 -0.286011,0.605669 -0.698202,1.093569 -1.236575,1.463701 -0.52155,0.353308 -1.202928,0.580434 -2.044136,0.68138 l -0.02524,0.126184 c 0.302834,0.08412 0.588845,0.227128 0.858031,0.429015 0.269188,0.201891 0.496314,0.4879 0.681379,0.858032 0.20189,0.353308 0.344896,0.799148 0.429017,1.337522 l 0.984213,5.400556 h -3.255469 l -0.883268,-5.425796 c -0.08412,-0.622494 -0.260777,-1.043098 -0.529962,-1.261812 -0.252362,-0.218714 -0.639318,-0.32807 -1.160868,-0.32807 -1.127219,-0.01682 -2.077783,-0.02524 -2.851694,-0.02524 -0.757088,0 -1.387994,-0.0084 -1.892719,-0.02524 -0.504725,-0.01682 -0.958977,-0.02524 -1.362758,-0.02524 l 0.328072,-2.397443 h 5.955754 c 0.757087,-0.01682 1.362757,-0.10936 1.817009,-0.277599 0.454253,-0.168242 0.80756,-0.462665 1.059923,-0.883269 0.269187,-0.437428 0.454252,-1.05151 0.555197,-1.842246 0.117765,-0.68979 0.117765,-1.2281644 0,-1.6151194 -0.117766,-0.386956 -0.370132,-0.656143 -0.757088,-0.80756 -0.386955,-0.168242 -0.942152,-0.252363 -1.665591,-0.252363 -1.531,0 -2.826461,0.0084 -3.886383,0.02523 -1.059922,0.01682 -1.774949,0.03365 -2.145081,0.05047 l -0.08864,-2.6843905 c 0,0 0.922778,3.768e-4 2.141078,0.035244 0.689713,0.019736 4.029503,0.1003032 4.029503,0.1003032 z M 75.486496,5.809388 73.03858,23.222398 H 69.934522 L 72.431261,5.4467074 Z"
     inkscape:label="R" />
  <path
     id="path30"
     style="font-style:italic;font-weight:600;font-size:19.7556px;font-family:'Exo 2';-inkscape-font-specification:'Exo 2 Semi-Bold Italic';stroke-width:0.337984;fill:#0f4c5c;fill-opacity:1"
     d="m 68.824138,10.831402 c -0.151417,0.790736 -0.336483,1.581471 -0.555197,2.372207 -0.201891,0.773912 -0.437428,1.547823 -0.706615,2.321734 -0.252363,0.773912 -0.521549,1.522588 -0.80756,2.246027 -0.286011,0.723439 -0.588846,1.421642 -0.908504,2.094608 -0.302835,0.656142 -0.622494,1.270224 -0.958978,1.842245 -0.858033,1.547824 -1.73289,2.792812 -2.62457,3.734965 -0.874857,0.942154 -1.808598,1.640356 -2.801222,2.094608 -0.975802,0.471077 -2.052549,0.7655 -3.23024,0.883269 L 55.852708,26.50311 c 0.639318,-0.168242 1.236577,-0.378544 1.791774,-0.630906 0.555197,-0.235538 1.093569,-0.563609 1.615119,-0.984213 0.538374,-0.420604 1.059922,-0.975802 1.564647,-1.665593 0.504725,-0.672967 1.017862,-1.522587 1.539412,-2.54886 0.504725,-1.00945 0.950566,-2.002076 1.337521,-2.977877 0.403779,-0.992625 0.757087,-2.044135 1.059922,-3.154531 0.319658,-1.110395 0.597258,-2.346971 0.832796,-3.709728 z m -9.690718,0 1.438466,9.816899 c 0.05047,0.302835 0.227129,0.454253 0.529961,0.454253 h 1.413229 l -0.984213,2.119844 h -2.069371 c -0.386956,0 -0.715027,-0.10936 -0.984215,-0.32807 -0.252362,-0.235539 -0.412192,-0.52155 -0.479488,-0.858033 L 55.852708,10.831402 Z"
     inkscape:label="y" />
  <path
     id="path28"
     style="font-style:italic;font-weight:600;font-size:19.7556px;font-family:'Exo 2';-inkscape-font-specification:'Exo 2 Semi-Bold Italic';stroke-width:0.337984;fill:#0f4c5c;fill-opacity:1"
     d="m 47.928547,10.528568 c 0.437428,0 0.916916,0.01682 1.438466,0.05047 0.538373,0.03365 1.076745,0.08412 1.615119,0.151416 0.538373,0.05047 1.051511,0.117779 1.539411,0.20189 0.504725,0.0673 0.933741,0.143004 1.287049,0.227127 l -1.867483,1.741301 c -0.773911,-0.03365 -1.480526,-0.05889 -2.119844,-0.07571 -0.622494,-0.01682 -1.160868,-0.02523 -1.61512,-0.02523 -0.672967,0 -1.236576,0.05047 -1.690828,0.151417 -0.437428,0.08412 -0.799148,0.269188 -1.085159,0.555197 -0.286011,0.269187 -0.521549,0.681379 -0.706614,1.236577 -0.168242,0.538373 -0.31966,1.261812 -0.454253,2.170316 -0.151418,1.127219 -0.227127,1.985252 -0.227127,2.574098 0,0.588846 0.117766,0.992625 0.353308,1.211339 0.235538,0.218714 0.597258,0.328071 1.085159,0.328071 0.521549,-0.01682 1.051509,-0.159825 1.589883,-0.429016 0.538373,-0.269187 1.085158,-0.656143 1.640356,-1.160868 0.555197,-0.504724 1.110395,-1.09357 1.665592,-1.766537 l 0.555197,1.135631 c -0.370131,0.891681 -0.874856,1.690829 -1.514174,2.397444 -0.639318,0.706615 -1.37117,1.270225 -2.195553,1.690829 -0.824384,0.403779 -1.724477,0.614081 -2.700278,0.630906 -1.043099,0.01682 -1.850658,-0.193482 -2.42268,-0.630906 -0.555198,-0.454253 -0.908506,-1.177693 -1.059922,-2.170317 -0.134594,-1.00945 -0.09254,-2.304911 0.126183,-3.886382 0.218714,-1.41323 0.513137,-2.540449 0.883269,-3.381657 0.370132,-0.858032 0.832796,-1.488938 1.387993,-1.892719 0.555198,-0.420604 1.202929,-0.698203 1.943191,-0.832796 0.757087,-0.134593 1.606707,-0.201889 2.548861,-0.201889 z m 2.851696,0.504724 3.028349,0.126184 -1.690829,12.062925 h -2.372207 l 0.100942,-2.851695 -0.353307,-0.277599 z"
     inkscape:label="a" />
  <path
     style="font-style:italic;font-weight:600;font-size:19.7556px;font-family:'Exo 2';-inkscape-font-specification:'Exo 2 Semi-Bold Italic';stroke-width:0.337984;fill:#0f4c5c;fill-opacity:1"
     d="m 21.834277,23.222398 c -0.252362,0 -0.462664,-0.07571 -0.630906,-0.227126 -0.168242,-0.168241 -0.269186,-0.370132 -0.302835,-0.605669 L 19.184471,10.831402 h 3.129296 l 1.186103,10.245915 h 0.277599 c 0.218714,0 0.412191,-0.07571 0.580433,-0.227126 0.185066,-0.168241 0.370132,-0.462664 0.555198,-0.883268 0.185065,-0.370132 0.370131,-0.815972 0.555197,-1.337521 0.201891,-0.538374 0.395368,-1.135631 0.580434,-1.791773 0.151417,-0.504725 0.28601,-1.001038 0.403779,-1.488939 0.117766,-0.504725 0.227126,-1.051511 0.328072,-1.640356 0.117765,-0.60567 0.235537,-1.312285 0.353307,-2.119844 0.03365,-0.201891 0.126184,-0.378544 0.277599,-0.529962 0.151417,-0.151417 0.353307,-0.227126 0.605669,-0.227126 h 2.927405 c 0.235538,0 0.420604,0.07571 0.555197,0.227126 0.151418,0.134593 0.235539,0.311248 0.252363,0.529962 l 0.908505,9.488827 h 0.277598 c 0.235539,0 0.429017,-0.10936 0.580434,-0.32807 0.151418,-0.218714 0.294423,-0.487901 0.429016,-0.807561 0.269187,-0.521548 0.504725,-1.017862 0.706615,-1.488938 0.218714,-0.4879 0.454253,-1.110394 0.706615,-1.867482 0.302835,-0.89168 0.555197,-1.808597 0.757088,-2.750751 0.218713,-0.942153 0.40378,-1.943191 0.555197,-3.003113 h 3.104058 c -0.151417,0.740263 -0.319658,1.488938 -0.504725,2.246026 -0.185066,0.757087 -0.386955,1.497351 -0.605669,2.220789 -0.218714,0.723439 -0.462665,1.430054 -0.731852,2.119845 -0.302835,0.807559 -0.630906,1.57306 -0.984213,2.296498 -0.336483,0.706616 -0.639318,1.278636 -0.908505,1.716065 -0.235538,0.40378 -0.4879,0.740263 -0.757088,1.00945 -0.269186,0.269186 -0.588845,0.471076 -0.958977,0.60567 -0.370132,0.117765 -0.84962,0.176653 -1.438466,0.176653 h -1.564647 c -0.252362,0 -0.462665,-0.07571 -0.630906,-0.227126 -0.168242,-0.168241 -0.260774,-0.370132 -0.277599,-0.605669 l -0.80756,-9.640247 H 29.27897 c -0.05047,0.370132 -0.117779,0.824385 -0.201889,1.362758 -0.08412,0.521549 -0.19348,1.076746 -0.328072,1.665592 -0.134593,0.572022 -0.277599,1.135632 -0.429016,1.690829 -0.134593,0.437428 -0.277599,0.883267 -0.429017,1.33752 -0.151417,0.437429 -0.311246,0.849621 -0.479488,1.236577 -0.151417,0.386955 -0.311247,0.723439 -0.479488,1.00945 -0.252363,0.622494 -0.555197,1.09357 -0.908506,1.413229 -0.336483,0.302834 -0.715027,0.504725 -1.135631,0.60567 -0.403779,0.100942 -0.858031,0.151417 -1.362756,0.151417 z"
     id="path27"
     inkscape:label="w" />
  <path
     style="font-style:italic;font-weight:600;font-size:19.7556px;font-family:'Exo 2';-inkscape-font-specification:'Exo 2 Semi-Bold Italic';stroke-width:0.337984;fill:#0f4c5c;fill-opacity:1"
     d="m 12.283694,5.4813178 c 8.14632,-0.082892 57.299556,0.00498 59.258169,0.00128 l -0.302835,2.5004578 c -0.555197,-0.01682 -54.93436,0.240595 -55.523205,0.223775 -0.572021,-0.01682 -1.160867,-0.02523 -1.766538,-0.02523 -0.588845,-0.01682 -1.194515,-0.02524 -1.817009,-0.02524 -0.4879,0 -0.925329,0.01682 -1.312285,0.05047 -0.370131,0.01682 -0.68979,0.09254 -0.9589767,0.227127 -0.252363,0.117765 -0.462665,0.319658 -0.630906,0.605669 -0.168242,0.286012 -0.286011,0.681379 -0.353307,1.1861044 -0.05047,0.437429 -0.04207,0.790736 0.02524,1.059923 0.06729,0.269186 0.218712,0.496312 0.454252,0.681378 0.252363,0.168242 0.614083,0.344896 1.0851587,0.529961 l 3.255475,1.312285 c 0.908506,0.353307 1.589884,0.757086 2.044137,1.211338 0.471076,0.43743 0.765499,0.975803 0.883268,1.615121 0.134593,0.622494 0.151417,1.362757 0.05047,2.22079 -0.168241,1.278636 -0.504725,2.254437 -1.00945,2.927404 -0.4879,0.672967 -1.194515,1.135631 -2.119844,1.387993 -0.925329,0.252363 -2.119845,0.378545 -3.5835477,0.378545 -0.588845,0 -1.387993,-0.04207 -2.397443,-0.126184 -1.00945,-0.06729 -2.119844,-0.227125 -3.331184,-0.479488 l 0.328071,-2.271262 c 0.992625,0.03365 1.825422,0.06729 2.498388,0.100942 0.672967,0.01682 1.236577,0.02524 1.69083,0.02524 h 1.135631 c 0.8412077,0 1.5057627,-0.05047 1.9936627,-0.151418 0.504725,-0.100942 0.883268,-0.302834 1.135631,-0.605669 0.252362,-0.31966 0.420604,-0.790736 0.504725,-1.41323 0.06729,-0.471077 0.06729,-0.832797 0,-1.085159 -0.06729,-0.269186 -0.218713,-0.4879 -0.454253,-0.656142 -0.235538,-0.168241 -0.572021,-0.336483 -1.00945,-0.504725 L 8.6749163,15.020614 C 7.8168833,14.650483 7.1523283,14.229878 6.6812523,13.758802 6.2269993,13.287726 5.9325763,12.74094 5.7979833,12.118446 5.6633903,11.495952 5.6381533,10.79775 5.7222733,10.023839 5.8568663,9.0480376 6.0924043,8.2657126 6.4288873,7.6768676 6.7653703,7.0711964 7.2027993,6.6169438 7.7411733,6.3141091 8.2963703,5.9944507 8.9441003,5.7757369 9.6843633,5.6579675 10.441451,5.5402019 11.221727,5.481314 12.283697,5.481314 c 1.06197,0 0,-2.6e-6 0,-2.6e-6 z"
     id="text1"
     inkscape:label="S" />
</svg>
